<svg width="192" height="192" viewBox="0 0 192 192" xmlns="http://www.w3.org/2000/svg">
  <defs>
    <linearGradient id="futuristicGrad" x1="0%" y1="0%" x2="100%" y2="100%">
      <stop offset="0%" style="stop-color:#ff1493;stop-opacity:1" />
      <stop offset="30%" style="stop-color:#ff69b4;stop-opacity:1" />
      <stop offset="70%" style="stop-color:#da70d6;stop-opacity:1" />
      <stop offset="100%" style="stop-color:#ba55d3;stop-opacity:1" />
    </linearGradient>
    <filter id="glow">
      <feGaussianBlur stdDeviation="3" result="coloredBlur"/>
      <feMerge>
        <feMergeNode in="coloredBlur"/>
        <feMergeNode in="SourceGraphic"/>
      </feMerge>
    </filter>
  </defs>

  <!-- Background -->
  <rect width="192" height="192" rx="40" fill="url(#futuristicGrad)" />

  <!-- Futuristic geometric elements -->
  <!-- Central hexagon -->
  <polygon points="96,40 136,60 136,100 96,120 56,100 56,60"
           fill="rgba(255,255,255,0.1)"
           stroke="rgba(255,255,255,0.3)"
           stroke-width="2"
           filter="url(#glow)" />

  <!-- Sound waves emanating from center -->
  <path d="M96,80 Q110,70 120,80 Q130,90 120,100 Q110,110 96,100 Q82,110 72,100 Q62,90 72,80 Q82,70 96,80"
        fill="none"
        stroke="rgba(255,255,255,0.6)"
        stroke-width="3"
        filter="url(#glow)" />

  <!-- Inner geometric pattern -->
  <circle cx="96" cy="80" r="8" fill="rgba(255,255,255,0.8)" filter="url(#glow)" />
  <circle cx="96" cy="100" r="6" fill="rgba(255,255,255,0.6)" filter="url(#glow)" />

  <!-- Corner accents -->
  <rect x="20" y="20" width="15" height="3" rx="1.5" fill="rgba(255,255,255,0.4)" />
  <rect x="157" y="20" width="15" height="3" rx="1.5" fill="rgba(255,255,255,0.4)" />
  <rect x="20" y="169" width="15" height="3" rx="1.5" fill="rgba(255,255,255,0.4)" />
  <rect x="157" y="169" width="15" height="3" rx="1.5" fill="rgba(255,255,255,0.4)" />

  <!-- Tech grid overlay -->
  <pattern id="grid" width="20" height="20" patternUnits="userSpaceOnUse">
    <path d="M 20 0 L 0 0 0 20" fill="none" stroke="rgba(255,255,255,0.1)" stroke-width="1"/>
  </pattern>
  <rect width="192" height="192" fill="url(#grid)" opacity="0.3" />
</svg>