<svg width="512" height="512" viewBox="0 0 512 512" xmlns="http://www.w3.org/2000/svg">
  <defs>
    <linearGradient id="futuristicGrad" x1="0%" y1="0%" x2="100%" y2="100%">
      <stop offset="0%" style="stop-color:#ff1493;stop-opacity:1" />
      <stop offset="30%" style="stop-color:#ff69b4;stop-opacity:1" />
      <stop offset="70%" style="stop-color:#da70d6;stop-opacity:1" />
      <stop offset="100%" style="stop-color:#ba55d3;stop-opacity:1" />
    </linearGradient>
    <filter id="glow">
      <feGaussianBlur stdDeviation="8" result="coloredBlur"/>
      <feMerge>
        <feMergeNode in="coloredBlur"/>
        <feMergeNode in="SourceGraphic"/>
      </feMerge>
    </filter>
  </defs>

  <!-- Background -->
  <rect width="512" height="512" rx="100" fill="url(#futuristicGrad)" />

  <!-- Futuristic geometric elements -->
  <!-- Central hexagon -->
  <polygon points="256,120 346,160 346,240 256,280 166,240 166,160"
           fill="rgba(255,255,255,0.1)"
           stroke="rgba(255,255,255,0.3)"
           stroke-width="6"
           filter="url(#glow)" />

  <!-- Sound waves emanating from center -->
  <path d="M256,200 Q290,170 320,200 Q350,230 320,260 Q290,290 256,260 Q222,290 192,260 Q162,230 192,200 Q222,170 256,200"
        fill="none"
        stroke="rgba(255,255,255,0.6)"
        stroke-width="8"
        filter="url(#glow)" />

  <!-- Inner geometric pattern -->
  <circle cx="256" cy="200" r="20" fill="rgba(255,255,255,0.8)" filter="url(#glow)" />
  <circle cx="256" cy="260" r="15" fill="rgba(255,255,255,0.6)" filter="url(#glow)" />

  <!-- Corner accents -->
  <rect x="50" y="50" width="40" height="8" rx="4" fill="rgba(255,255,255,0.4)" />
  <rect x="422" y="50" width="40" height="8" rx="4" fill="rgba(255,255,255,0.4)" />
  <rect x="50" y="454" width="40" height="8" rx="4" fill="rgba(255,255,255,0.4)" />
  <rect x="422" y="454" width="40" height="8" rx="4" fill="rgba(255,255,255,0.4)" />

  <!-- Tech grid overlay -->
  <pattern id="grid" width="50" height="50" patternUnits="userSpaceOnUse">
    <path d="M 50 0 L 0 0 0 50" fill="none" stroke="rgba(255,255,255,0.1)" stroke-width="2"/>
  </pattern>
  <rect width="512" height="512" fill="url(#grid)" opacity="0.3" />
</svg>