<svg width="96" height="96" viewBox="0 0 96 96" xmlns="http://www.w3.org/2000/svg">
  <defs>
    <linearGradient id="futuristicGrad" x1="0%" y1="0%" x2="100%" y2="100%">
      <stop offset="0%" style="stop-color:#ff1493;stop-opacity:1" />
      <stop offset="30%" style="stop-color:#ff69b4;stop-opacity:1" />
      <stop offset="70%" style="stop-color:#da70d6;stop-opacity:1" />
      <stop offset="100%" style="stop-color:#ba55d3;stop-opacity:1" />
    </linearGradient>
    <filter id="glow">
      <feGaussianBlur stdDeviation="2" result="coloredBlur"/>
      <feMerge>
        <feMergeNode in="coloredBlur"/>
        <feMergeNode in="SourceGraphic"/>
      </feMerge>
    </filter>
  </defs>
  <rect width="96" height="96" rx="20" fill="url(#futuristicGrad)" />
  <polygon points="48,20 68,30 68,50 48,60 28,50 28,30"
           fill="rgba(255,255,255,0.1)"
           stroke="rgba(255,255,255,0.3)"
           stroke-width="2"
           filter="url(#glow)" />
  <path d="M48,35 Q55,28 62,35 Q69,42 62,49 Q55,56 48,49 Q41,56 34,49 Q27,42 34,35 Q41,28 48,35"
        fill="none"
        stroke="rgba(255,255,255,0.6)"
        stroke-width="2"
        filter="url(#glow)" />
  <circle cx="48" cy="35" r="4" fill="rgba(255,255,255,0.8)" filter="url(#glow)" />
  <circle cx="48" cy="49" r="3" fill="rgba(255,255,255,0.6)" filter="url(#glow)" />
  <rect x="8" y="8" width="6" height="1.5" rx="0.75" fill="rgba(255,255,255,0.4)" />
  <rect x="82" y="8" width="6" height="1.5" rx="0.75" fill="rgba(255,255,255,0.4)" />
  <rect x="8" y="86.5" width="6" height="1.5" rx="0.75" fill="rgba(255,255,255,0.4)" />
  <rect x="82" y="86.5" width="6" height="1.5" rx="0.75" fill="rgba(255,255,255,0.4)" />
</svg>