<svg width="144" height="144" viewBox="0 0 144 144" xmlns="http://www.w3.org/2000/svg">
  <defs>
    <linearGradient id="futuristicGrad" x1="0%" y1="0%" x2="100%" y2="100%">
      <stop offset="0%" style="stop-color:#ff1493;stop-opacity:1" />
      <stop offset="30%" style="stop-color:#ff69b4;stop-opacity:1" />
      <stop offset="70%" style="stop-color:#da70d6;stop-opacity:1" />
      <stop offset="100%" style="stop-color:#ba55d3;stop-opacity:1" />
    </linearGradient>
    <filter id="glow">
      <feGaussianBlur stdDeviation="3" result="coloredBlur"/>
      <feMerge>
        <feMergeNode in="coloredBlur"/>
        <feMergeNode in="SourceGraphic"/>
      </feMerge>
    </filter>
  </defs>
  <rect width="144" height="144" rx="30" fill="url(#futuristicGrad)" />
  <polygon points="72,24 100,38 100,72 72,86 44,72 44,38"
           fill="rgba(255,255,255,0.1)"
           stroke="rgba(255,255,255,0.3)"
           stroke-width="2"
           filter="url(#glow)" />
  <path d="M72,48 Q79,39 86,48 Q93,57 86,66 Q79,75 72,66 Q65,75 58,66 Q51,57 58,48 Q65,39 72,48"
        fill="none"
        stroke="rgba(255,255,255,0.6)"
        stroke-width="3"
        filter="url(#glow)" />
  <circle cx="72" cy="48" r="6" fill="rgba(255,255,255,0.8)" filter="url(#glow)" />
  <circle cx="72" cy="66" r="4.5" fill="rgba(255,255,255,0.6)" filter="url(#glow)" />
  <rect x="12" y="12" width="10" height="2.5" rx="1.25" fill="rgba(255,255,255,0.4)" />
  <rect x="122" y="12" width="10" height="2.5" rx="1.25" fill="rgba(255,255,255,0.4)" />
  <rect x="12" y="129.5" width="10" height="2.5" rx="1.25" fill="rgba(255,255,255,0.4)" />
  <rect x="122" y="129.5" width="10" height="2.5" rx="1.25" fill="rgba(255,255,255,0.4)" />
</svg>