<svg width="128" height="128" viewBox="0 0 128 128" xmlns="http://www.w3.org/2000/svg">
  <defs>
    <linearGradient id="futuristicGrad" x1="0%" y1="0%" x2="100%" y2="100%">
      <stop offset="0%" style="stop-color:#ff1493;stop-opacity:1" />
      <stop offset="30%" style="stop-color:#ff69b4;stop-opacity:1" />
      <stop offset="70%" style="stop-color:#da70d6;stop-opacity:1" />
      <stop offset="100%" style="stop-color:#ba55d3;stop-opacity:1" />
    </linearGradient>
    <filter id="glow">
      <feGaussianBlur stdDeviation="2.5" result="coloredBlur"/>
      <feMerge>
        <feMergeNode in="coloredBlur"/>
        <feMergeNode in="SourceGraphic"/>
      </feMerge>
    </filter>
  </defs>
  <rect width="128" height="128" rx="26" fill="url(#futuristicGrad)" />
  <polygon points="64,27 88,40 88,67 64,80 40,67 40,40"
           fill="rgba(255,255,255,0.1)"
           stroke="rgba(255,255,255,0.3)"
           stroke-width="2"
           filter="url(#glow)" />
  <path d="M64,47 Q71,38 78,47 Q85,56 78,65 Q71,74 64,65 Q57,74 50,65 Q43,56 50,47 Q57,38 64,47"
        fill="none"
        stroke="rgba(255,255,255,0.6)"
        stroke-width="3"
        filter="url(#glow)" />
  <circle cx="64" cy="47" r="5" fill="rgba(255,255,255,0.8)" filter="url(#glow)" />
  <circle cx="64" cy="65" r="4" fill="rgba(255,255,255,0.6)" filter="url(#glow)" />
  <rect x="11" y="11" width="8" height="2" rx="1" fill="rgba(255,255,255,0.4)" />
  <rect x="109" y="11" width="8" height="2" rx="1" fill="rgba(255,255,255,0.4)" />
  <rect x="11" y="115" width="8" height="2" rx="1" fill="rgba(255,255,255,0.4)" />
  <rect x="109" y="115" width="8" height="2" rx="1" fill="rgba(255,255,255,0.4)" />
</svg>