<svg width="152" height="152" viewBox="0 0 152 152" xmlns="http://www.w3.org/2000/svg">
  <defs>
    <linearGradient id="futuristicGrad" x1="0%" y1="0%" x2="100%" y2="100%">
      <stop offset="0%" style="stop-color:#ff1493;stop-opacity:1" />
      <stop offset="30%" style="stop-color:#ff69b4;stop-opacity:1" />
      <stop offset="70%" style="stop-color:#da70d6;stop-opacity:1" />
      <stop offset="100%" style="stop-color:#ba55d3;stop-opacity:1" />
    </linearGradient>
    <filter id="glow">
      <feGaussianBlur stdDeviation="3" result="coloredBlur"/>
      <feMerge>
        <feMergeNode in="coloredBlur"/>
        <feMergeNode in="SourceGraphic"/>
      </feMerge>
    </filter>
  </defs>
  <rect width="152" height="152" rx="32" fill="url(#futuristicGrad)" />
  <polygon points="76,25 106,40 106,76 76,91 46,76 46,40"
           fill="rgba(255,255,255,0.1)"
           stroke="rgba(255,255,255,0.3)"
           stroke-width="2"
           filter="url(#glow)" />
  <path d="M76,51 Q83,41 90,51 Q97,61 90,71 Q83,81 76,71 Q69,81 62,71 Q55,61 62,51 Q69,41 76,51"
        fill="none"
        stroke="rgba(255,255,255,0.6)"
        stroke-width="3"
        filter="url(#glow)" />
  <circle cx="76" cy="51" r="6" fill="rgba(255,255,255,0.8)" filter="url(#glow)" />
  <circle cx="76" cy="71" r="5" fill="rgba(255,255,255,0.6)" filter="url(#glow)" />
  <rect x="13" y="13" width="10" height="2.5" rx="1.25" fill="rgba(255,255,255,0.4)" />
  <rect x="129" y="13" width="10" height="2.5" rx="1.25" fill="rgba(255,255,255,0.4)" />
  <rect x="13" y="136.5" width="10" height="2.5" rx="1.25" fill="rgba(255,255,255,0.4)" />
  <rect x="129" y="136.5" width="10" height="2.5" rx="1.25" fill="rgba(255,255,255,0.4)" />
</svg>